<svg id="Outline" height="512" viewBox="0 0 128 128" width="512" xmlns="http://www.w3.org/2000/svg"><path d="m113.451 20.369h-4.545a1.5 1.5 0 0 1 -1.5-1.5v-6.969a1.5 1.5 0 1 1 3 0v5.468h3.045a1.5 1.5 0 0 1 0 3z"/><path d="m11.862 26.332a3.133 3.133 0 0 1 -2.749-1.632l-.863-1.574-1.631-.918a3.133 3.133 0 0 1 0-5.5l1.581-.86.917-1.631a3.133 3.133 0 0 1 5.5 0l.862 1.577 1.63.915a3.133 3.133 0 0 1 0 5.5l-1.576.862-.921 1.629a3.134 3.134 0 0 1 -2.75 1.632zm0-10.745a.117.117 0 0 0 -.116.069l-.865 1.579a3.116 3.116 0 0 1 -1.244 1.244l-1.578.864a.118.118 0 0 0 -.069.117.116.116 0 0 0 .069.116l1.578.864a3.118 3.118 0 0 1 1.246 1.248l.862 1.574c.027.051.209.05.234 0l.862-1.577a3.141 3.141 0 0 1 1.246-1.247l1.578-.862a.119.119 0 0 0 .07-.117.117.117 0 0 0 -.07-.117l-1.578-.863a3.139 3.139 0 0 1 -1.244-1.243l-.864-1.58a.119.119 0 0 0 -.117-.069z"/><path d="m54.031 61.9a5.419 5.419 0 0 0 3.533-1.468 1.5 1.5 0 1 0 -1.957-2.276 2.061 2.061 0 0 1 -3.152 0 1.5 1.5 0 0 0 -1.955 2.273 5.423 5.423 0 0 0 3.531 1.471z"/><path d="m52.365 69.474a3.03 3.03 0 0 0 1.523.439h.224a3.027 3.027 0 0 0 1.523-.439c.414-.243.449-.272.718-.249.288.02.631.048.969.055a9.265 9.265 0 0 0 3.972-.788 1.077 1.077 0 0 0 -.629-2.045h-.021a9.115 9.115 0 0 1 -3.1.054c-.257-.038-.507-.089-.81-.149a3.75 3.75 0 0 0 -1.355-.068 3.363 3.363 0 0 0 -1.324.538.145.145 0 0 1 -.112 0 3.356 3.356 0 0 0 -1.324-.538 3.753 3.753 0 0 0 -1.355.068c-.3.06-.553.111-.81.149a9.115 9.115 0 0 1 -3.1-.054h-.022a1.078 1.078 0 0 0 -.628 2.046 9.268 9.268 0 0 0 3.972.788c.339-.007.681-.035.97-.055.27-.026.305.005.719.248z"/><path d="m56.134 73.982a1.5 1.5 0 0 0 -1.3-2.7 1.7 1.7 0 0 1 -1.6 0 1.5 1.5 0 1 0 -1.3 2.7 4.683 4.683 0 0 0 4.2 0z"/><path d="m96.669 109.907a33.828 33.828 0 0 0 -5.44-16.178c-1.842-3.086-3.435-5.75-3.732-10.665-.24-3.974.335-7.416 1.063-11.774a129.388 129.388 0 0 0 1.94-17.29c.461-11.06-2.014-26-5.3-31.977-6.986-12.716-18.93-20.623-31.168-20.623h-.013c-12.977 0-25.685 8.9-30.908 21.657-4.52 11.043-6.211 20.312-5.482 30.055.891 11.91-1.084 21.746-5.869 29.236a66.136 66.136 0 0 0 -7.845 19.325c-1.849 7.878-1.213 13.3 2.062 17.572.479.626.966 1.187 1.456 1.721-.346 1.369-.691 2.869-1.071 4.664a1.5 1.5 0 0 0 2.936.621c.229-1.083.444-2.055.655-2.955 4.718 3.654 9.912 4.036 15.585 4.037a10.458 10.458 0 0 0 8.609-4.269 8.838 8.838 0 0 0 1.059-8.168c-.185-.517-.352-1.018-.506-1.506.8.168 1.593.325 2.385.464-.749 2.929-1.315 6.483-1.344 6.662a1.5 1.5 0 0 0 1.247 1.715 1.466 1.466 0 0 0 .237.019 1.5 1.5 0 0 0 1.479-1.266c.007-.044.61-3.834 1.358-6.667a97.716 97.716 0 0 0 12.47.855v6.411a1.5 1.5 0 0 0 3 0v-6.41a96.205 96.205 0 0 0 12.4-.852c.747 2.831 1.35 6.619 1.357 6.663a1.5 1.5 0 0 0 1.479 1.266 1.457 1.457 0 0 0 .237-.019 1.5 1.5 0 0 0 1.247-1.715c-.029-.179-.595-3.734-1.344-6.663a61.108 61.108 0 0 0 8.457-2.088 79.593 79.593 0 0 1 3.279 14.335 1.5 1.5 0 0 0 2.983-.315c-.065-.619-1.676-15.233-9.212-28.2h.009l7.276 2.215a.685.685 0 0 1 .138.158c7.367 10.266 9.033 25.973 9.05 26.13a1.5 1.5 0 0 0 1.49 1.349c.051 0 .1 0 .152-.007a1.5 1.5 0 0 0 1.342-1.643 73.75 73.75 0 0 0 -4.925-19.05 22.259 22.259 0 0 1 2.935 4.306l.012.023c1.9 3.589 3.363 8.319 4.81 15.185a1.5 1.5 0 0 0 1.466 1.19 1.516 1.516 0 0 0 .312-.032 1.5 1.5 0 0 0 1.158-1.777c-1.351-6.385-2.771-11.506-4.971-15.725zm-64.969 11.43a7.46 7.46 0 0 1 -6.157 3c-7.884 0-12.706-1.07-17.181-6.912-2.712-3.543-3.168-8.048-1.522-15.063a62.664 62.664 0 0 1 7.452-18.4c5.143-8.048 7.274-18.5 6.334-31.075-.692-9.255.932-18.1 5.267-28.695 4.693-11.471 16.521-19.792 28.127-19.792h.01c10.976 0 22.179 7.493 28.543 19.077 2.827 5.133 5.063 18.173 4.977 28.374a7.4 7.4 0 0 0 -1.6-2.85 8.031 8.031 0 0 0 -6.213-2.393c-4.274-4.295-4.91-9.11-5.462-13.376-.58-4.48-1.126-8.712-5.9-10.589a3.713 3.713 0 0 1 -1.551-1.072c-3.581-4.4-8.173-6.616-12.917-6.242-5.156.409-9.882 3.893-13.306 9.808-4.653 8.036-5.168 14.835-5.622 20.832-.323 4.249-.626 8.261-2.4 12.145a29.45 29.45 0 0 0 -2.342 7.4 1.485 1.485 0 0 0 -.072.425c-.8 5.4.5 9.509 1.7 13.265a44.319 44.319 0 0 1 1.405 5.071c.992 5.111-.059 8.443-1.172 11.97-.048.151-.095.3-.143.454a1.4 1.4 0 0 0 -.052.167 24.909 24.909 0 0 0 -.821 14.642 1.492 1.492 0 0 0 .1.4 40.424 40.424 0 0 0 1.205 4 5.806 5.806 0 0 1 -.687 5.429zm47.835-59.679a3.5 3.5 0 0 0 -.355.036q.553-2.354.9-4.918c.534-.977 1.192-.927 1.419-.906a1.5 1.5 0 1 0 .289-2.986 4.342 4.342 0 0 0 -1.319.077c.076-1.09.119-2.206.142-3.339a4.681 4.681 0 0 1 3.13 1.412 5.855 5.855 0 0 1 1.1 5.018 9.8 9.8 0 0 1 -4.058 5.839 3.653 3.653 0 0 0 -1.248-.233zm.687 3.686a.686.686 0 1 1 -.687-.686.687.687 0 0 1 .687.686zm-44.006 18.362a47.345 47.345 0 0 0 -1.492-5.412 41.733 41.733 0 0 1 -1.533-5.742 23.262 23.262 0 0 0 3.481 4.348 37.534 37.534 0 0 0 7.121 5.582c0 .062-.008.115-.012.178-.206 3.555-.489 8.423-5.706 11.07-.669.337-1.452.679-2.4 1.049a22.438 22.438 0 0 0 .541-11.073zm2.544-8.96a24.184 24.184 0 0 1 -5.545-8.925 26.925 26.925 0 0 1 2.094-6.461 31.04 31.04 0 0 0 2.441-10.482l.024-.007a5.43 5.43 0 0 1 .621-.157c.212-.057.423-.1.634-.14a2.416 2.416 0 0 0 -.823 1.811v1.29a2.431 2.431 0 0 0 4.861 0v-1.29a2.42 2.42 0 0 0 -.755-1.754 7.893 7.893 0 0 1 1.905.706l.077.041a1.082 1.082 0 0 0 1.342-1.642 6.37 6.37 0 0 0 -2.914-1.951 7.944 7.944 0 0 0 -3.492-.3 9.219 9.219 0 0 0 -1.225.26c.11-1.446.229-2.907.407-4.4.27 0 .54 0 .809.009l3.492.1a29.633 29.633 0 0 1 3.342.326l.064.012a1.19 1.19 0 0 0 .712-2.246 11.775 11.775 0 0 0 -3.889-1.035 15.424 15.424 0 0 0 -3.878.058c-.084.013-.166.03-.249.043a35.592 35.592 0 0 1 4.385-11.971c2.912-5.041 6.8-7.993 10.945-8.321 3.726-.307 7.412 1.531 10.352 5.144a6.672 6.672 0 0 0 2.778 1.97c2.984 1.173 3.431 3.613 4.023 8.184a45.649 45.649 0 0 0 .98 5.628 32.149 32.149 0 0 0 -3.342-.676 15.424 15.424 0 0 0 -3.878-.058 11.775 11.775 0 0 0 -3.889 1.035 1.19 1.19 0 0 0 .713 2.245l.063-.011a29.633 29.633 0 0 1 3.342-.326l3.492-.1a29.653 29.653 0 0 1 3.551.071c.219.019.435.055.654.08a19.662 19.662 0 0 0 4.64 7.233c-.092 11.461-3.124 20.916-8.384 26.007-3.479 3.371-7.612 6.692-14.24 8.154a4.613 4.613 0 0 1 -2 0c-6.628-1.462-10.761-4.783-14.24-8.154zm39.626 34.182c-9.235 3.027-19.887 3.288-24.308 3.242-.015 0-.029 0-.044 0s-.026 0-.039 0h-.011a94.256 94.256 0 0 1 -14.8-1.011l-.051-.008c-1.74-.268-3.517-.608-5.285-1.027a21.578 21.578 0 0 1 .732-11.748 40.441 40.441 0 0 0 4.85-1.968c6.12-3.107 7-8.6 7.274-12.431a29.46 29.46 0 0 0 5.65 1.853 7.588 7.588 0 0 0 3.3 0 29.473 29.473 0 0 0 5.646-1.853c.277 3.828 1.155 9.325 7.274 12.43a41 41 0 0 0 4.91 1.994 2.813 2.813 0 0 0 .216.476 62.751 62.751 0 0 1 4.686 10.051zm13.008-6.017a16.2 16.2 0 0 0 -3.611-2.406c-.478-.784-.98-1.552-1.513-2.3a3.166 3.166 0 0 0 -1.658-1.259l-7.312-2.233a3.135 3.135 0 0 0 -3.077.772 37.033 37.033 0 0 1 -4.3-1.754c-5.217-2.646-5.5-7.514-5.712-11.068 0-.064-.008-.117-.012-.18a37.481 37.481 0 0 0 7.129-5.583 26.4 26.4 0 0 0 5.79-8.8 3.654 3.654 0 0 0 2.417.926 3.69 3.69 0 0 0 3.687-3.686 3.647 3.647 0 0 0 -.258-1.328 13.309 13.309 0 0 0 4.251-5.5c-.4 4.979-1.036 8.814-1.614 12.275a53.221 53.221 0 0 0 -1.1 12.45c.341 5.644 2.192 8.741 4.151 12.022a31.631 31.631 0 0 1 4.013 8.923c-.405-.428-.825-.857-1.271-1.271z"/><path d="m63.788 49.319.044-.028a6.693 6.693 0 0 1 1.845-.883 2.425 2.425 0 0 0 -1.025 1.977v1.29a2.431 2.431 0 0 0 4.861 0v-1.29a2.423 2.423 0 0 0 -1.013-1.968c.334.069.673.144 1.017.249.217.054 1.065.312 1.416.4a3.927 3.927 0 0 0 2.128 0 2.33 2.33 0 0 0 1.561-1.536.709.709 0 0 0 -.9-.855l-.193.061a1.506 1.506 0 0 1 -.9.025 3.687 3.687 0 0 1 -.811-.308c-.117-.079-1.133-.519-1.39-.618a11.083 11.083 0 0 0 -1.625-.45 7.038 7.038 0 0 0 -3.639.208 5.9 5.9 0 0 0 -2.85 2.186 1.084 1.084 0 0 0 1.473 1.537z"/><path d="m104.058 54.845-1.144-.627-.625-1.143a2.752 2.752 0 0 0 -4.827 0l-.625 1.143-1.142.626a2.75 2.75 0 0 0 0 4.827l1.143.625.626 1.143a2.751 2.751 0 0 0 4.827 0l.625-1.143 1.143-.625a2.75 2.75 0 0 0 0-4.826zm-2.65 2.854a2.747 2.747 0 0 0 -1.092 1.093l-.441.809-.44-.806a2.746 2.746 0 0 0 -1.095-1.1l-.807-.441.8-.441a2.737 2.737 0 0 0 1.1-1.094l.441-.808.44.8a2.732 2.732 0 0 0 1.094 1.095l.808.443z"/><path d="m122.036 10.052a.192.192 0 0 1 -.122-.209 7.832 7.832 0 0 0 -12.567-7.2.194.194 0 0 1 -.243 0 7.833 7.833 0 0 0 -12.523 7.28.192.192 0 0 1 -.121.21 7.833 7.833 0 0 0 .03 14.481.191.191 0 0 1 .122.211 7.83 7.83 0 0 0 12.554 7.225.19.19 0 0 1 .242 0 7.833 7.833 0 0 0 12.539-7.25.193.193 0 0 1 .12-.211 7.814 7.814 0 0 0 4.846-7.241v-.074a7.814 7.814 0 0 0 -4.877-7.222zm1.877 7.3a4.825 4.825 0 0 1 -2.992 4.469 3.2 3.2 0 0 0 -1.948 3.379 4.834 4.834 0 0 1 -7.738 4.475 3.2 3.2 0 0 0 -3.9 0 4.833 4.833 0 0 1 -7.747-4.457 3.2 3.2 0 0 0 -1.955-3.377 4.833 4.833 0 0 1 -.019-8.938 3.2 3.2 0 0 0 1.94-3.383 4.83 4.83 0 0 1 7.728-4.491 3.206 3.206 0 0 0 3.9-.013 4.833 4.833 0 0 1 7.756 4.441 3.2 3.2 0 0 0 1.963 3.372 4.819 4.819 0 0 1 3.011 4.45z"/></svg>